inDegrees=yes
name=ik_MT_012005D6_009-001__orientations
DataType=double
version=3
OpenSimVersion=4.5
endheader
time	gndpitch	gndroll	gndyaw	spine_tx	spine_ty	spine_tz	pitch2	roll2	yaw2	aux7jnt_r3	aux7jnt_r1	aux7jnt_r2	aux6jnt_r3	aux6jnt_r1	aux6jnt_r2	aux5jnt_r3	aux5jnt_r1	aux5jnt_r2	aux4jnt_r3	aux4jnt_r1	aux4jnt_r2	aux3jnt_r3	aux3jnt_r1	aux3jnt_r2	pitch1	roll1	yaw1	aux1jnt_r3	aux1jnt_r1	aux1jnt_r2
10.00999999999983	4.21296440140691e-09	8.002416233845703e-10	4.440363815649541e-10	-3.97872216927308e-17	8.44526185968539e-17	-7.30666612219483e-19	0.1576581155777962	0.5759141516120262	-0.4712245478512453	1.689199546473418	4.520646713855002	-5.07584480665402	1.987288712925515	5.180603281294828	-5.912815760335929	1.987288712925515	7.127443960114222	-5.912815760335929	1.490466534694135	7.127443960114222	-5.912815760335929	0.9936443564627575	6.467506298812632	-2.53792240332701	0.4188097429486347	0.1045809862286043	-0.6632089582545344	13.34178646421377	2.996024564107409	-4.217905296587956
10.01999999999983	4.21296440140691e-09	8.002416233845703e-10	4.440363815649541e-10	-3.97872216927308e-17	8.44526185968539e-17	-7.30666612219483e-19	0.1518130716273573	0.5759137749639305	-0.4712245739096717	1.626573873484661	4.520643757350163	-5.075845087345102	1.913611631180055	5.180599893178116	-5.912816087310985	1.913611631180055	7.127439298762896	-5.912816087310985	1.435208723385041	7.127439298762896	-5.912816087310985	0.9568058155900276	6.46750206906081	-2.537922543672551	0.4188102097112977	0.1045801440234339	-0.6632089666381009	13.34180133360945	2.996000436706529	-4.217905349906128
10.02999999999983	4.21296440140691e-09	8.002416233845703e-10	4.440363815649541e-10	-3.97872216927308e-17	8.44526185968539e-17	-7.30666612219483e-19	0.1453840618408425	0.5759133507821605	-0.4712246064121687	1.557691403490304	4.52064042772904	-5.075845437449169	1.832573629823731	5.18059607747492	-5.912816495144742	1.832573629823731	7.127434049140555	-5.912816495144742	1.374430222367796	7.127434049140555	-5.912816495144742	0.9162868149118653	6.46749730550662	-2.537922718724585	0.4188107490792818	0.1045791264943313	-0.6632089805314844	13.341818515952	2.995971286644977	-4.217905438265874
10.03999999999983	4.21296440140691e-09	8.002416233845703e-10	4.440363815649541e-10	-3.97872216927308e-17	8.44526185968539e-17	-7.30666612219483e-19	0.1379788699024918	0.5759128135580603	-0.4712246529038762	1.478349805260698	4.520636210780461	-5.07584593823949	1.739230801881138	5.180591244905814	-5.912817078511848	1.739230801881138	7.12742740052	-5.912817078511848	1.304423101410855	7.12742740052	-5.912817078511848	0.8696154009405691	6.467491272488953	-2.537922969119745	0.4188114843405741	0.1045774948732086	-0.6632090060628681	13.34184193875751	2.99592454414293	-4.217905600641482
10.04999999999983	4.21296440140691e-09	8.002416233845703e-10	4.440363815649541e-10	-3.97872216927308e-17	8.44526185968539e-17	-7.30666612219483e-19	0.1309774190985608	0.5759123131926186	-0.471224697264441	1.40333401885914	4.520632283154472	-5.075846416073983	1.650977151850106	5.180586743896692	-5.912817635137875	1.650977151850106	7.127421208057745	-5.912817635137875	1.238232863887577	7.127421208057745	-5.912817635137875	0.8254885759250532	6.467485653393403	-2.537923208036991	0.418812146742991	0.1045760982045067	-0.6632090318036	13.34186304053881	2.995884532531932	-4.217905764348515
10.05999999999983	4.21296440140691e-09	8.002416233845703e-10	4.440363815649541e-10	-3.97872216927308e-17	8.44526185968539e-17	-7.30666612219483e-19	0.1253679676624502	0.5759119092900026	-0.4712247245082813	1.343232559526606	4.520629112714872	-5.075846709533875	1.580269725950513	5.180583110613486	-5.912817976987228	1.580269725950513	7.12741620940777	-5.912817976987228	1.185202294462883	7.12741620940777	-5.912817976987228	0.7901348629752567	6.467481117573777	-2.537923354766937	0.4188125772578584	0.1045751384630697	-0.6632090428490083	13.34187675520885	2.995857037965047	-4.217905834595585
10.06999999999983	4.21296440140691e-09	8.002416233845703e-10	4.440363815649541e-10	-3.97872216927308e-17	8.44526185968539e-17	-7.30666612219483e-19	0.1219152270686846	0.5759115679943779	-0.471224740241805	1.306238790929891	4.520626433709777	-5.07584687900918	1.536747751927779	5.180580040507936	-5.912818174407814	1.536747751927779	7.127411985574351	-5.912818174407814	1.152560813945834	7.127411985574351	-5.912818174407814	0.7683738759638894	6.467477284829615	-2.53792343950459	0.4188129169998954	0.1045739947730128	-0.6632090451047443	13.34188757817986	2.995824273658384	-4.217905848941712
10.07999999999983	4.21296440140691e-09	8.002416233845703e-10	4.440363815649541e-10	-3.97872216927308e-17	8.44526185968539e-17	-7.30666612219483e-19	0.1206080300135661	0.5759112519345027	-0.4712247534794129	1.292233063000408	4.520623952793079	-5.075847021599468	1.520270465340368	5.180577197409146	-5.912818340510232	1.520270465340368	7.127408074055519	-5.912818340510232	1.140202849005276	7.127408074055519	-5.912818340510232	0.7601352326701842	6.467473735482496	-2.537923510799734	0.4188132951920777	0.1045722480651794	-0.6632090478904592	13.34189962603554	2.995774234164932	-4.217905866658424
10.08999999999983	4.21296440140691e-09	8.002416233845703e-10	4.440363815649541e-10	-3.97872216927308e-17	8.44526185968539e-17	-7.30666612219483e-19	0.1188847105850132	0.5759110233960567	-0.4712247668940774	1.273768866682497	4.520622158877141	-5.075847166096938	1.498547934682321	5.180575141604439	-5.912818508834317	1.498547934682321	7.127405245691322	-5.912818508834317	1.123910951011742	7.127405245691322	-5.912818508834317	0.7492739673411607	6.467471168999569	-2.537923583048469	0.4188135551357134	0.1045712513966413	-0.6632090539972284	13.34190790691376	2.995745681714534	-4.217905905496522
10.09999999999983	4.21296440140691e-09	8.002416233845703e-10	4.440363815649541e-10	-3.97872216927308e-17	8.44526185968539e-17	-7.30666612219483e-19	0.1158912798818901	0.5759109384383782	-0.4712247753201935	1.241696291366069	4.520621492000578	-5.075847256859734	1.460815585621572	5.18057437737243	-5.912818614563257	1.460815585621572	7.127404194265356	-5.912818614563257	1.09561168921618	7.127404194265356	-5.912818614563257	0.7304077928107859	6.467470214926259	-2.537923628429867	0.4188135774897828	0.104571872567605	-0.6632090581893516	13.34190861903479	2.99576347695182	-4.217905932157771
10.10999999999983	4.21296440140691e-09	8.002416233845703e-10	4.440363815649541e-10	-3.97872216927308e-17	8.44526185968539e-17	-7.30666612219483e-19	0.1124325026752286	0.5759107688068216	-0.471224787297374	1.204637844565327	4.520620160475147	-5.075847385873194	1.417217519780616	5.180572851461328	-5.912818764850125	1.417217519780616	7.127402094925706	-5.912818764850125	1.062913139835461	7.127402094925706	-5.912818764850125	0.7086087598903078	6.467468309966712	-2.537923692936597	0.4188137047013597	0.10457201018421	-0.6632090633287949	13.34191267154245	2.995767419377151	-4.217905964843826
10.11999999999983	4.21296440140691e-09	8.002416233845703e-10	4.440363815649541e-10	-3.97872216927308e-17	8.44526185968539e-17	-7.30666612219483e-19	0.1088500366695942	0.57591057174655	-0.4712248002724283	1.166254156356216	4.520618613647609	-5.075847525635356	1.372060350222009	5.180571078816763	-5.91281892765808	1.372060350222009	7.127399656131597	-5.91281892765808	1.029045262666506	7.127399656131597	-5.91281892765808	0.6860301751110045	6.467466096983151	-2.537923762817678	0.4188138545316963	0.1045719800442367	-0.6632090690232613	13.34191744460322	2.995766555930515	-4.217906001059742
10.12999999999983	4.21296440140691e-09	8.002416233845703e-10	4.440363815649541e-10	-3.97872216927308e-17	8.44526185968539e-17	-7.30666612219483e-19	0.1042421631079434	0.5759103959416889	-0.4712248095896494	1.116883923165102	4.520617233664735	-5.075847625996786	1.313977865307759	5.180569497374051	-5.912819044568399	1.313977865307759	7.127397480391879	-5.912819044568399	0.9854833989808176	7.127397480391879	-5.912819044568399	0.6569889326538796	6.467464122697505	-2.537923812998393	0.4188139133295825	0.1045725957478875	-0.6632090702641729	13.34191931769441	2.995784194540826	-4.217906008951745
10.13999999999983	4.21296440140691e-09	8.002416233845703e-10	4.440363815649541e-10	-3.97872216927308e-17	8.44526185968539e-17	-7.30666612219483e-19	0.09873869729224047	0.5759101181976894	-0.4712248231529284	1.057918027715653	4.520615053509074	-5.075847772095071	1.244606393643043	5.180566998943563	-5.912819214757262	1.244606393643043	7.127394043065698	-5.912819214757262	0.9334547952322813	7.127394043065698	-5.912819214757262	0.6223031968215215	6.46746100363703	-2.537923886047535	0.4188140746910131	0.1045728037017951	-0.6632090726270422	13.34192445809478	2.995790151981449	-4.217906023979223
10.14999999999983	4.21296440140691e-09	8.002416233845703e-10	4.440363815649541e-10	-3.97872216927308e-17	8.44526185968539e-17	-7.30666612219483e-19	0.09328570232211757	0.5759097719305918	-0.4712248453029828	0.9994928930710082	4.520612335480328	-5.075848010686713	1.175871109601048	5.180563884117405	-5.91281949269098	1.175871109601048	7.127389757705927	-5.91281949269098	0.881903332200785	7.127389757705927	-5.91281949269098	0.587935554800524	6.467457115063307	-2.537924005343356	0.4188143792717409	0.1045724389842259	-0.6632090834236599	13.34193416095173	2.995779703592729	-4.217906092644026
10.15999999999983	4.21296440140691e-09	8.002416233845703e-10	4.440363815649541e-10	-3.97872216927308e-17	8.44526185968539e-17	-7.30666612219483e-19	0.08860462591349451	0.5759093994281083	-0.4712248684927745	0.9493383411313636	4.520609411516537	-5.075848260477994	1.116865899009098	5.180560533292317	-5.912819783671081	1.116865899009098	7.127385147660197	-5.912819783671081	0.8376494242568225	7.127385147660197	-5.912819783671081	0.5584329495045488	6.467452931866645	-2.537924130238997	0.4188147433355479	0.1045716542871239	-0.6632090953662194	13.34194575872771	2.995757223676662	-4.217906168596836
10.16999999999983	4.21296440140691e-09	8.002416233845703e-10	4.440363815649541e-10	-3.97872216927308e-17	8.44526185968539e-17	-7.30666612219483e-19	0.08318156123145073	0.57590901957421	-0.4712248930690346	0.8912338891795445	4.520606429847701	-5.075848525203768	1.048507887798611	5.180557116337991	-5.912820092048263	1.048507887798611	7.127380446634244	-5.912820092048263	0.7863809158489606	7.127380446634244	-5.912820092048263	0.5242539438993055	6.467448666113714	-2.537924262601884	0.4188150798171338	0.1045711599538161	-0.6632091085388337	13.34195647783236	2.995743062070557	-4.217906252372604
10.17999999999983	4.21296440140691e-09	8.002416233845703e-10	4.440363815649541e-10	-3.97872216927308e-17	8.44526185968539e-17	-7.30666612219483e-19	0.07764751321049836	0.575908682629065	-0.4712249158238933	0.8319403261879061	4.520603784991764	-5.075848770310122	0.9787509258526877	5.180554085366934	-5.912820377570921	0.9787509258526877	7.127376276641838	-5.912820377570921	0.7340631943895157	7.127376276641838	-5.912820377570921	0.4893754629263439	6.467444882225365	-2.537924385155061	0.4188153504547243	0.1045710999391029	-0.6632091210123613	13.34196509938189	2.995741342775665	-4.217906331702291
